<svg width="1003" height="261" viewBox="0 0 1003 261" fill="none" xmlns="http://www.w3.org/2000/svg">
<g clip-path="url(#clip0_1_4)">
<path d="M679.519 4.00133C646.956 3.8412 614.646 18.1251 592.83 45.6751C555.09 93.3275 563.036 162.621 610.574 200.45C611.319 201.043 612.084 201.629 612.858 202.207C613.011 202.37 613.166 202.539 613.319 202.699C613.255 202.604 613.195 202.508 613.132 202.413C615.842 204.425 618.686 206.331 621.443 208.042C613.363 199.9 606.779 190.721 601.725 180.895C587.752 146.361 593.557 111.423 619.394 94.2523C650.719 73.4245 700.404 86.0975 734.682 122.02C732.568 118.849 730.172 115.511 727.704 112.437C693.566 69.8598 638.519 53.5431 604.749 75.9952C604.175 76.3768 603.612 76.7701 603.057 77.1694C605.967 71.8899 609.35 66.7807 613.217 61.8989C648.228 17.6888 710.325 7.7902 757.077 36.7744C754.059 33.733 750.671 30.6196 747.236 27.8866C727.18 11.9273 703.282 4.11955 679.519 4.00241V4.00133ZM765.621 48.2131C789.8 71.1118 801.694 103.112 799.869 134.847C796.865 150.704 788.986 165.796 776.196 177.928C744.87 207.649 695.185 209.083 660.907 182.892C663.021 185.463 665.417 188.121 667.884 190.493C694.353 215.991 733.39 222.127 765.335 208.665C730.34 241.549 677.353 247.883 635.355 223.62C638.466 226.565 641.949 229.571 645.467 232.196C694.154 268.526 763.004 258.417 799.248 209.611C835.492 160.808 825.406 91.7939 776.718 55.463C773.202 52.837 769.33 50.3582 765.62 48.2141L765.621 48.2131Z" fill="black"/>
<path d="M126.22 257.96C103.67 257.96 83.375 253.01 65.335 243.11C47.295 233.1 32.995 218.855 22.435 200.375C11.985 181.895 6.76 159.95 6.76 134.54C6.76 116.06 9.785 99.23 15.835 84.05C21.885 68.76 30.3 55.56 41.08 44.45C51.97 33.34 64.62 24.815 79.03 18.875C93.55 12.825 109.28 9.8 126.22 9.8C135.46 9.8 144.975 10.735 154.765 12.605C164.665 14.365 174.62 17.17 184.63 21.02L176.05 42.47C166.48 39.28 157.68 37.08 149.65 35.87C141.62 34.55 133.81 33.89 126.22 33.89C114.89 33.89 104.055 35.98 93.715 40.16C83.375 44.34 74.19 50.61 66.16 58.97C58.24 67.33 51.97 77.835 47.35 90.485C42.73 103.025 40.42 117.71 40.42 134.54C40.42 149.5 42.73 163.085 47.35 175.295C51.97 187.505 58.24 198.01 66.16 206.81C74.19 215.61 83.375 222.375 93.715 227.105C104.055 231.835 114.89 234.2 126.22 234.2C133.81 234.2 141.73 233.21 149.98 231.23C158.34 229.25 167.03 225.95 176.05 221.33L184.63 242.78C174.4 248.17 164.39 252.02 154.6 254.33C144.92 256.75 135.46 257.96 126.22 257.96ZM225.663 254V3.85999H256.353V254H225.663ZM332.253 254V129.92C332.253 122.33 330.768 116.115 327.798 111.275C324.938 106.325 320.263 103.85 313.773 103.85C311.133 103.85 308.933 104.125 307.173 104.675C305.523 105.225 303.213 105.83 300.243 106.49C293.863 107.92 288.033 107.975 282.753 106.655C277.473 105.335 272.523 102.31 267.903 97.58C279.673 90.65 289.408 86.03 297.108 83.72C304.808 81.3 311.683 80.09 317.733 80.09C326.203 80.09 333.903 81.685 340.833 84.875C347.873 88.065 353.483 93.51 357.663 101.21C361.843 108.91 363.933 119.58 363.933 133.22V254H332.253ZM460.964 257.3C449.524 257.3 439.624 255.265 431.264 251.195C423.014 247.015 416.634 241.405 412.124 234.365C407.724 227.325 405.524 219.35 405.524 210.44C405.524 199.33 408.439 190.145 414.269 182.885C420.099 175.515 429.669 169.575 442.979 165.065C456.399 160.555 474.384 156.98 496.934 154.34C496.494 156.98 495.504 160.115 493.964 163.745C492.534 167.375 490.169 170.73 486.869 173.81C483.569 176.89 479.004 178.87 473.174 179.75C463.494 181.29 456.124 183.545 451.064 186.515C446.114 189.485 442.704 192.895 440.834 196.745C439.074 200.485 438.194 204.39 438.194 208.46C438.194 215.17 440.614 221.055 445.454 226.115C450.294 231.065 456.894 233.54 465.254 233.54C472.734 233.54 480.269 231.67 487.859 227.93C495.449 224.19 502.434 218.14 508.814 209.78V148.07C508.814 134.98 505.624 124.365 499.244 116.225C492.974 107.975 482.304 103.85 467.234 103.85C461.294 103.85 455.409 104.455 449.579 105.665C443.749 106.875 436.874 108.91 428.954 111.77L421.364 91.31C432.144 86.69 441.659 83.665 449.909 82.235C458.159 80.805 465.914 80.09 473.174 80.09C494.294 80.09 510.684 86.25 522.344 98.57C534.004 110.78 539.834 128.05 539.834 150.38V197.57C539.834 210.77 540.329 222.045 541.319 231.395C542.419 240.635 543.684 248.17 545.114 254H522.674C519.594 252.13 517.174 249.71 515.414 246.74C513.654 243.77 512.114 240.58 510.794 237.17L510.464 231.23L506.834 237.17C498.474 245.53 490.719 250.975 483.569 253.505C476.419 256.035 468.884 257.3 460.964 257.3ZM906.745 257.96C897.395 257.96 886.395 256.805 873.745 254.495C861.205 252.295 849.325 248.5 838.105 243.11L846.685 221.66C856.585 226.06 866.54 229.25 876.55 231.23C886.67 233.21 895.525 234.2 903.115 234.2C918.625 234.2 930.67 230.295 939.25 222.485C947.94 214.565 952.285 204.94 952.285 193.61C952.285 184.15 949.59 176.23 944.2 169.85C938.92 163.47 932.045 157.805 923.575 152.855C915.215 147.905 906.305 143.065 896.845 138.335C887.385 133.605 878.42 128.27 869.95 122.33C861.59 116.39 854.715 109.24 849.325 100.88C844.045 92.41 841.405 81.96 841.405 69.53C841.405 58.53 844.21 48.52 849.82 39.5C855.43 30.48 863.24 23.275 873.25 17.885C883.26 12.495 894.865 9.8 908.065 9.8C917.525 9.8 927.04 10.57 936.61 12.11C946.18 13.65 956.575 16.18 967.795 19.7L958.885 41.15C949.535 38.29 940.79 36.365 932.65 35.375C924.62 34.385 917.525 33.89 911.365 33.89C899.045 33.89 889.585 37.465 882.985 44.615C876.385 51.655 873.085 59.96 873.085 69.53C873.085 78.11 875.78 85.48 881.17 91.64C886.56 97.8 893.49 103.355 901.96 108.305C910.43 113.255 919.45 118.26 929.02 123.32C938.59 128.27 947.61 133.88 956.08 140.15C964.55 146.31 971.48 153.735 976.87 162.425C982.26 171.115 984.955 181.73 984.955 194.27C984.955 205.16 981.93 215.445 975.88 225.125C969.83 234.805 960.975 242.725 949.315 248.885C937.655 254.935 923.465 257.96 906.745 257.96Z" fill="black"/>
</g>
<defs>
</defs>
</svg>
